# xmcd
#
# Track frame offsets:
#	150
#	30835
#	60329
#	81467
#	113355
#	147677
#	171137
#	189623
#	210036
#	241062
#	257469
#	282051
#	310246
#
# Disc length: 4546
#
# Revision: 1
# Processed by: cddbd v1.5.1PL0 Copyright (c) Steve Scherf et al.
# Submitted via: EasyCDDAExtractor 4.5.0.2
# Normalized: r0:TDELIM( - )
#
DISCID=a011c00d
DTITLE=DJ JUNIOR - MIXIN' N.Y.
DYEAR=2001
DGENRE=House
TTITLE0=KINGS OF TOMORROW FEAT. JULIE McKNIGHT - FINALLY
TTITLE1=RAVEM MAIZE - REAL LIFE
TTITLE2=THE ONES - FLAWLESS
TTITLE3=IIO - RAPTURE
TTITLE4=HARRY CHOO CHOO ROMERO - I WANT OUT
TTITLE5=DRUMMERS OF LOVE - DRUMS OF LOVE
TTITLE6=LOVE TATOO - DROP SOME DRUMS
TTITLE7=TALL PAUL VS. INXS - PRECIOUS HEART
TTITLE8=KOSHEEN - HIDE U
TTITLE9=SONO - KEEP CONTROL
TTITLE10=X-PRESS 2 - SMOKE MACHINE
TTITLE11=FATBOY SLIM - STAR 69
TTITLE12=STATIC REVENGER - HAPPY PEOPLE
EXTD=
EXTT0=
EXTT1=
EXTT2=
EXTT3=
EXTT4=
EXTT5=
EXTT6=
EXTT7=
EXTT8=
EXTT9=
EXTT10=
EXTT11=
EXTT12=
PLAYORDER=
